<mxfile host="app.diagrams.net" agent="Mozilla/5.0 (Windows NT 10.0; Win64; x64) AppleWebKit/537.36 (KHTML, like Gecko) Chrome/133.0.0.0 Safari/537.36" version="26.0.16">
  <diagram name="Halaman-1" id="V_07FplVZMIJUc2ZmG0F">
    <mxGraphModel dx="1434" dy="784" grid="1" gridSize="10" guides="1" tooltips="1" connect="1" arrows="1" fold="1" page="1" pageScale="1" pageWidth="827" pageHeight="1169" math="0" shadow="0">
      <root>
        <mxCell id="0" />
        <mxCell id="1" parent="0" />
        <mxCell id="eEdHUnmBB0p7iLZNosYY-6" style="edgeStyle=orthogonalEdgeStyle;rounded=0;orthogonalLoop=1;jettySize=auto;html=1;exitX=0.5;exitY=1;exitDx=0;exitDy=0;exitPerimeter=0;entryX=0.5;entryY=0;entryDx=0;entryDy=0;" edge="1" parent="1" source="eEdHUnmBB0p7iLZNosYY-1" target="eEdHUnmBB0p7iLZNosYY-2">
          <mxGeometry relative="1" as="geometry" />
        </mxCell>
        <mxCell id="eEdHUnmBB0p7iLZNosYY-1" value="Mulai" style="strokeWidth=2;html=1;shape=mxgraph.flowchart.start_1;whiteSpace=wrap;" vertex="1" parent="1">
          <mxGeometry x="364" y="40" width="100" height="60" as="geometry" />
        </mxCell>
        <mxCell id="eEdHUnmBB0p7iLZNosYY-7" style="edgeStyle=orthogonalEdgeStyle;rounded=0;orthogonalLoop=1;jettySize=auto;html=1;exitX=0.5;exitY=1;exitDx=0;exitDy=0;entryX=0.5;entryY=0;entryDx=0;entryDy=0;" edge="1" parent="1" source="eEdHUnmBB0p7iLZNosYY-2" target="eEdHUnmBB0p7iLZNosYY-3">
          <mxGeometry relative="1" as="geometry" />
        </mxCell>
        <mxCell id="eEdHUnmBB0p7iLZNosYY-2" value="Mendeklarasikan variabel&amp;nbsp;&lt;div&gt;count, *temp, sum&lt;/div&gt;" style="shape=parallelogram;html=1;strokeWidth=2;perimeter=parallelogramPerimeter;whiteSpace=wrap;rounded=1;arcSize=12;size=0.23;" vertex="1" parent="1">
          <mxGeometry x="301" y="130" width="226" height="90" as="geometry" />
        </mxCell>
        <mxCell id="eEdHUnmBB0p7iLZNosYY-8" style="edgeStyle=orthogonalEdgeStyle;rounded=0;orthogonalLoop=1;jettySize=auto;html=1;exitX=0.5;exitY=1;exitDx=0;exitDy=0;entryX=0.5;entryY=0;entryDx=0;entryDy=0;" edge="1" parent="1" source="eEdHUnmBB0p7iLZNosYY-3" target="eEdHUnmBB0p7iLZNosYY-4">
          <mxGeometry relative="1" as="geometry" />
        </mxCell>
        <mxCell id="eEdHUnmBB0p7iLZNosYY-3" value="Mebgubah&amp;nbsp;nilai variabel dan mengkalikan nilai variabelnya" style="rounded=1;whiteSpace=wrap;html=1;absoluteArcSize=1;arcSize=14;strokeWidth=2;" vertex="1" parent="1">
          <mxGeometry x="316" y="250" width="196" height="100" as="geometry" />
        </mxCell>
        <mxCell id="eEdHUnmBB0p7iLZNosYY-4" value="Mencetak ouput dari&amp;nbsp;&lt;div&gt;count, *temp, sum&lt;/div&gt;" style="shape=parallelogram;html=1;strokeWidth=2;perimeter=parallelogramPerimeter;whiteSpace=wrap;rounded=1;arcSize=12;size=0.23;" vertex="1" parent="1">
          <mxGeometry x="310" y="380" width="210" height="60" as="geometry" />
        </mxCell>
        <mxCell id="eEdHUnmBB0p7iLZNosYY-5" value="Selesai" style="strokeWidth=2;html=1;shape=mxgraph.flowchart.start_1;whiteSpace=wrap;" vertex="1" parent="1">
          <mxGeometry x="365" y="470" width="100" height="60" as="geometry" />
        </mxCell>
        <mxCell id="eEdHUnmBB0p7iLZNosYY-9" style="edgeStyle=orthogonalEdgeStyle;rounded=0;orthogonalLoop=1;jettySize=auto;html=1;exitX=0.5;exitY=1;exitDx=0;exitDy=0;entryX=0.5;entryY=0;entryDx=0;entryDy=0;entryPerimeter=0;" edge="1" parent="1" source="eEdHUnmBB0p7iLZNosYY-4" target="eEdHUnmBB0p7iLZNosYY-5">
          <mxGeometry relative="1" as="geometry" />
        </mxCell>
      </root>
    </mxGraphModel>
  </diagram>
</mxfile>
